# xmcd
#
# Track frame offsets:
#	150
#	12707
#	33616
#	50297
#	68393
#	86996
#	106138
#	121914
#	138528
#	154868
#	176453
#	193187
#	207815
#	229083
#
# Disc length: 3301 seconds
#
# Revision: 1
# Processed by: cddbd v1.5.1PL0 Copyright (c) Steve Scherf et al.
# Submitted via: EasyCDDAExtractor 6.0.0.1
#
DISCID=be0ce30e
DTITLE=Various Artist - Tomasz Szwed
DYEAR=1984
DGENRE=Country
TTITLE0=Tak jak plecy taksówkarza 
TTITLE1=Tomasz Szwed - Gdy do ciebie jade (jade dalej)
TTITLE2=Zmiennik
TTITLE3=Ciagnik siodlowy Kamaz "Godfather 1"
TTITLE4=Poradnik poczatkujacego kierowcy 
TTITLE5=Pastoralka podrózna 
TTITLE6=Podróz jesienna 
TTITLE7=Kiedy pada deszcz 
TTITLE8=Ty do miasta nie idz 
TTITLE9=Krótka piosenka z baru "Relax"
TTITLE10=Nie mów do mnie "Misiu" 
TTITLE11=Uspokój sie Gienia 
TTITLE12=Zycie miast - zycie zamiast 
TTITLE13=Zaczne od poczatku 
EXTD=
EXTT0=
EXTT1=
EXTT2=
EXTT3=
EXTT4=
EXTT5=
EXTT6=
EXTT7=
EXTT8=
EXTT9=
EXTT10=
EXTT11=
EXTT12=
EXTT13=
PLAYORDER=
